<?xml version="1.0" encoding="utf-8"?>
<!-- Generated by IcoMoon.io -->
<svg version="1.1" xmlns="http://www.w3.org/2000/svg" xmlns:xlink="http://www.w3.org/1999/xlink" width="320" height="20" viewBox="0 0 320 20">
<svg id="icon-chartsjs" width="20" height="20" viewBox="0 0 20 20" x="0" y="0">
<path fill="#36a2eb" d="M18.011 10.071c-2.747 0.054-2.175 1.793-4.111 2.233-1.967 0.447-2.278-4.804-4.244-4.804s-2.402 5.101-4.865 8.603l-0.070 0.099 5.279 3.048 8.011-4.625v-4.554z"></path>
<path fill="#ffce56" d="M18.011 9.912c-0.92-1.181-1.544-2.537-2.886-2.537-2.375 0-1.75 3.875-4.375 3.875s-2.901-4.168-5.875-0.25c-0.947 1.248-1.71 2.641-2.309 3.958l7.434 4.292 8.011-4.625v-4.713z"></path>
<path fill="#fe6184" opacity="0.8" d="M1.989 11.518c0.901-2.496 1.29-4.518 3.011-4.518 2.625 0 3.25 7.375 5.5 6.625s2-4.75 5.5-4.75c0.666 0 1.347 0.408 2.011 1.068v4.682l-8.011 4.625-8.011-4.625v-3.107z"></path>
<path fill="none" stroke="#e7e9ed" stroke-width="1" stroke-miterlimit="4" stroke-linecap="butt" stroke-linejoin="miter" d="M10 0.75l8.011 4.625v9.25l-8.011 4.625-8.011-4.625v-9.25z"></path>
</svg>
<svg id="icon-sass-original" width="20" height="20" viewBox="0 0 20 20" x="20" y="0">
<path fill="#6d6d6d" d="M0.19 8.774c0 0.11 0.032 0.182 0.050 0.253 0.118 0.458 0.372 0.852 0.673 1.21 0.429 0.511 0.955 0.923 1.493 1.31 0.467 0.336 0.943 0.664 1.412 0.997 0.080 0.057 0.157 0.123 0.244 0.193-0.075 0.041-0.138 0.076-0.203 0.109-0.619 0.314-1.214 0.665-1.762 1.092-0.331 0.257-0.65 0.53-0.876 0.887-0.363 0.574-0.492 1.185-0.221 1.838 0.079 0.191 0.2 0.355 0.37 0.477 0.055 0.039 0.117 0.078 0.182 0.094 0.165 0.039 0.334 0.064 0.501 0.095l0.474-0c0.524-0.047 1.001-0.226 1.432-0.524 0.674-0.465 1.128-1.088 1.323-1.889 0.142-0.582 0.148-1.164-0.020-1.743-0.015-0.054-0.035-0.106-0.055-0.158s-0.044-0.103-0.072-0.168l1.074-0.618 0.016 0.014c-0.020 0.064-0.040 0.128-0.058 0.192-0.128 0.466-0.212 0.941-0.182 1.425 0.032 0.516 0.176 0.998 0.478 1.429 0.244 0.348 0.826 0.361 1.085 0.012 0.092-0.124 0.181-0.254 0.248-0.393 0.175-0.362 0.337-0.73 0.505-1.095l0.029-0.067c-0.012 0.173-0.026 0.325-0.033 0.477-0.010 0.238 0.004 0.474 0.085 0.7 0.070 0.193 0.188 0.338 0.409 0.363 0.152 0.017 0.272-0.052 0.384-0.14 0.174-0.137 0.315-0.307 0.42-0.5 0.297-0.545 0.602-1.088 0.871-1.647 0.291-0.605 0.546-1.227 0.816-1.842l0.045-0.109c0.064 0.251 0.108 0.497 0.19 0.73 0.095 0.27 0.213 0.534 0.342 0.79 0.061 0.121 0.054 0.2-0.030 0.301-0.352 0.425-0.699 0.855-1.046 1.285-0.077 0.095-0.153 0.191-0.217 0.295-0.039 0.063-0.064 0.14-0.075 0.213-0.021 0.14 0.066 0.276 0.216 0.308 0.137 0.030 0.283 0.040 0.423 0.030 0.484-0.036 0.923-0.205 1.312-0.493 0.503-0.373 0.665-0.882 0.543-1.485-0.033-0.164-0.091-0.323-0.148-0.48-0.025-0.071-0.027-0.121 0.019-0.187 0.402-0.575 0.746-1.184 1.066-1.808 0.013-0.025 0.026-0.049 0.048-0.075 0.104 0.539 0.26 1.059 0.539 1.53-0.143 0.137-0.284 0.262-0.411 0.399-0.281 0.302-0.525 0.63-0.652 1.030-0.055 0.172-0.097 0.348-0.072 0.532 0.038 0.286 0.272 0.472 0.554 0.407 0.602-0.139 1.122-0.423 1.502-0.926 0.256-0.338 0.279-0.716 0.172-1.111-0.029-0.108-0.064-0.213-0.102-0.337 0.149-0.046 0.293-0.101 0.443-0.136 0.778-0.177 1.548-0.147 2.297 0.134 0.438 0.164 0.791 0.439 1.001 0.87 0.256 0.528 0.115 1.029-0.383 1.363-0.046 0.031-0.1 0.056-0.138 0.095-0.024 0.024-0.038 0.072-0.032 0.105 0.003 0.019 0.054 0.043 0.083 0.043 0.164-0.001 0.296-0.087 0.424-0.175 0.319-0.221 0.552-0.518 0.602-0.909l0.010-0.029-0.012-0.255c-0.005-0.015 0.004-0.029 0.003-0.040-0.068-0.57-0.372-1.011-0.815-1.357-0.512-0.401-1.118-0.566-1.758-0.592-0.522-0.021-1.034 0.056-1.526 0.235-0.14 0.051-0.279 0.111-0.42 0.168-0.019-0.034-0.039-0.067-0.056-0.101-0.145-0.296-0.32-0.579-0.359-0.919-0.027-0.241-0.061-0.482-0.004-0.721 0.055-0.23 0.127-0.455 0.195-0.682 0.035-0.117 0.010-0.182-0.101-0.234-0.039-0.018-0.081-0.034-0.123-0.040-0.273-0.040-0.543-0.017-0.808 0.060-0.094 0.027-0.162 0.080-0.183 0.184-0.012 0.060-0.036 0.117-0.053 0.175-0.069 0.244-0.118 0.493-0.23 0.726-0.28 0.584-0.6 1.145-0.928 1.703-0.035 0.060-0.073 0.119-0.117 0.192-0.115-0.241-0.238-0.457-0.275-0.71-0.042-0.286-0.075-0.572-0.004-0.856 0.053-0.212 0.122-0.42 0.186-0.629 0.030-0.099 0.016-0.152-0.074-0.204-0.045-0.026-0.097-0.050-0.148-0.057-0.284-0.042-0.563-0.020-0.837 0.068-0.085 0.027-0.129 0.082-0.155 0.17-0.076 0.258-0.141 0.523-0.248 0.768-0.433 0.994-0.879 1.982-1.325 2.971-0.093 0.206-0.202 0.406-0.307 0.607-0.027 0.051-0.065 0.096-0.098 0.144-0.027-0.031-0.037-0.053-0.037-0.075 0.001-0.127-0.014-0.258 0.010-0.381 0.073-0.372 0.158-0.741 0.247-1.109 0.073-0.304 0.159-0.605 0.24-0.907 0.027-0.101 0.028-0.196-0.045-0.281-0.122-0.142-0.377-0.174-0.528-0.064l-0.067 0.038 0.013-0.108c0.032-0.231 0.038-0.461-0.025-0.689-0.079-0.284-0.282-0.447-0.576-0.438-0.137 0.004-0.281 0.028-0.408 0.078-0.534 0.209-0.945 0.58-1.295 1.026-0.032 0.040-0.074 0.077-0.118 0.102-0.452 0.251-0.905 0.498-1.359 0.747l-0.505 0.276c-0.135-0.129-0.258-0.263-0.398-0.377-0.426-0.348-0.859-0.686-1.288-1.030-0.38-0.305-0.749-0.622-1.031-1.025-0.21-0.3-0.345-0.628-0.358-0.999-0.016-0.473 0.118-0.905 0.358-1.307 0.308-0.514 0.728-0.927 1.189-1.301 0.488-0.395 1.016-0.731 1.564-1.037 0.766-0.429 1.553-0.808 2.398-1.058 0.866-0.257 1.745-0.404 2.651-0.301 0.356 0.040 0.702 0.122 1.020 0.296 0.243 0.133 0.443 0.308 0.536 0.581 0.092 0.268 0.089 0.54 0.025 0.813-0.129 0.552-0.431 1.007-0.812 1.414-0.624 0.667-1.385 1.121-2.242 1.42-0.495 0.173-1.003 0.282-1.526 0.325-0.426 0.036-0.844-0.002-1.248-0.15-0.267-0.098-0.5-0.249-0.687-0.467-0.033-0.039-0.076-0.081-0.139-0.045-0.061 0.036-0.072 0.094-0.051 0.153 0.034 0.098 0.066 0.2 0.119 0.287 0.134 0.22 0.329 0.379 0.544 0.515 0.413 0.263 0.875 0.351 1.353 0.371 0.726 0.031 1.435-0.077 2.133-0.272 0.997-0.278 1.865-0.769 2.56-1.544 0.579-0.645 0.993-1.374 1.081-2.253 0.043-0.429-0.003-0.85-0.204-1.241-0.218-0.424-0.565-0.74-0.979-0.957-0.603-0.316-1.255-0.501-1.927-0.501h-0.673c-0.814 0-1.601 0.233-2.366 0.512-0.579 0.211-1.147 0.46-1.698 0.735-1.2 0.6-2.318 1.323-3.237 2.318-0.457 0.495-0.845 1.042-1.068 1.686-0.065 0.188-0.127 0.39-0.174 0.585zM4.554 14.119c-0.052 0.697-0.368 1.262-0.884 1.719-0.29 0.257-0.623 0.44-1.011 0.505-0.141 0.023-0.285 0.029-0.421-0.029-0.195-0.083-0.238-0.256-0.242-0.44-0.006-0.293 0.097-0.558 0.238-0.81 0.184-0.329 0.453-0.579 0.741-0.813 0.453-0.369 0.945-0.681 1.448-0.976l0.038-0.016c0.078 0.288 0.115 0.571 0.093 0.86zM8.485 11.091c-0.037 0.223-0.083 0.445-0.148 0.661-0.225 0.746-0.513 1.47-0.825 2.183-0.058 0.132-0.142 0.252-0.215 0.378-0.011 0.019-0.028 0.036-0.044 0.052-0.090 0.089-0.176 0.085-0.222-0.032-0.053-0.136-0.086-0.281-0.114-0.424-0.019-0.096-0.014-0.198-0.020-0.296 0.006-0.702 0.22-1.34 0.584-1.934 0.15-0.245 0.313-0.478 0.562-0.633 0.077-0.048 0.162-0.086 0.249-0.11 0.133-0.037 0.214 0.024 0.192 0.157zM11.167 14.508l0.964-1.125c0.040 0.418-0.67 1.252-0.964 1.125zM14.245 13.75c-0.068 0.039-0.142 0.067-0.212 0.103-0.064 0.033-0.085-0-0.087-0.055-0.001-0.037 0.004-0.076 0.015-0.113 0.13-0.459 0.37-0.851 0.726-1.17l0.025-0.013c0.17 0.474-0.026 0.995-0.467 1.247z"></path>
</svg>
<svg id="icon-photoshop-plain" width="20" height="20" viewBox="0 0 20 20" x="40" y="0">
<path fill="#6d6d6d" d="M7.851 6.502c-0.575-0.145-1.151-0.098-1.759-0.003 0 1.063-0.002 2.098 0.006 3.133 0 0.053 0.080 0.145 0.131 0.152 0.663 0.090 1.322 0.097 1.942-0.205 0.641-0.313 0.968-0.966 0.883-1.733-0.077-0.699-0.49-1.164-1.204-1.343zM19.844 9.994v-9.481c0-0.328 0.004-0.357-0.314-0.357h-18.986c-0.309 0-0.387 0.030-0.387 0.342v18.986c0 0.315 0.039 0.316 0.345 0.316 6.337 0 12.692-0.001 19.029 0.006 0.246 0 0.312-0.065 0.311-0.306-0.008-3.168 0.002-6.337 0.002-9.505zM8.805 10.907c-0.868 0.31-1.774 0.327-2.711 0.254v3.526h-1.719v-0.219c0-2.952-0.014-5.904-0.022-8.857-0.001-0.245 0.038-0.364 0.314-0.392 1.302-0.133 2.596-0.283 3.891 0.021 1.392 0.326 2.194 1.246 2.255 2.517 0.075 1.574-0.616 2.652-2.008 3.149zM15.728 12.9c-0.066 0.902-0.575 1.494-1.409 1.78-1.116 0.383-2.226 0.294-3.316-0.139-0.179-0.071-0.213-0.161-0.154-0.343 0.107-0.332 0.186-0.674 0.269-0.982 0.461 0.135 0.9 0.304 1.354 0.384 0.321 0.056 0.668 0.023 0.994-0.028 0.292-0.046 0.503-0.244 0.551-0.558 0.049-0.319-0.047-0.595-0.329-0.765-0.224-0.135-0.47-0.231-0.707-0.344-0.38-0.182-0.785-0.324-1.136-0.552-1.38-0.895-0.931-2.56-0.010-3.187 0.493-0.335 1.038-0.484 1.621-0.505 0.686-0.024 1.347 0.094 1.997 0.41l-0.343 1.217c-0.272-0.096-0.525-0.221-0.792-0.271-0.317-0.059-0.65-0.092-0.97-0.066-0.429 0.035-0.68 0.331-0.68 0.698 0 0.218 0.083 0.402 0.264 0.507 0.26 0.151 0.537 0.276 0.81 0.403 0.296 0.137 0.609 0.242 0.894 0.399 0.761 0.417 1.157 1.062 1.093 1.941z"></path>
</svg>
<svg id="icon-jquery-plain" width="20" height="20" viewBox="0 0 20 20" x="60" y="0">
<path fill="#6d6d6d" d="M10.2 16.707c-0.129-0.029-0.255-0.070-0.381-0.107l-0.095-0.029c-0.123-0.038-0.246-0.078-0.367-0.12l-0.050-0.018c-0.109-0.038-0.217-0.079-0.324-0.12l-0.091-0.036c-0.117-0.046-0.234-0.095-0.35-0.145l-0.070-0.031c-0.099-0.045-0.197-0.090-0.295-0.137l-0.085-0.041c-0.077-0.037-0.153-0.077-0.228-0.116-0.051-0.027-0.102-0.052-0.152-0.080-0.093-0.050-0.183-0.101-0.274-0.153l-0.092-0.052c-0.12-0.071-0.239-0.144-0.356-0.218l-0.096-0.064c-0.085-0.055-0.17-0.111-0.254-0.169l-0.082-0.057c-0.081-0.057-0.16-0.115-0.24-0.173l-0.106-0.080c-0.072-0.055-0.145-0.111-0.216-0.169l-0.096-0.077c-0.091-0.075-0.181-0.15-0.269-0.227l-0.029-0.025c-0.096-0.084-0.19-0.171-0.283-0.257l-0.080-0.077c-0.069-0.066-0.137-0.132-0.203-0.2l-0.080-0.080c-0.085-0.087-0.168-0.175-0.25-0.264l-0.012-0.013c-0.086-0.094-0.171-0.191-0.253-0.288l-0.066-0.079c-0.062-0.074-0.123-0.149-0.182-0.225l-0.067-0.083c-0.072-0.093-0.142-0.186-0.21-0.28-1.898-2.59-2.581-6.161-1.063-9.094l-1.345 1.706c-1.723 2.477-1.509 5.699-0.192 8.331 0.031 0.063 0.064 0.125 0.096 0.187l0.062 0.119 0.038 0.068 0.069 0.123c0.041 0.072 0.083 0.144 0.126 0.215l0.072 0.118c0.048 0.077 0.096 0.152 0.146 0.228l0.062 0.096c0.068 0.102 0.139 0.205 0.211 0.305l0.006 0.008 0.036 0.048c0.063 0.086 0.127 0.172 0.192 0.256l0.072 0.092c0.058 0.073 0.117 0.146 0.178 0.219l0.068 0.081c0.081 0.095 0.164 0.19 0.248 0.283l0.005 0.005 0.010 0.011c0.082 0.090 0.167 0.178 0.252 0.265l0.081 0.081c0.066 0.067 0.133 0.132 0.201 0.197l0.082 0.078c0.091 0.085 0.182 0.169 0.276 0.251l0.004 0.003 0.048 0.041c0.082 0.071 0.166 0.142 0.25 0.211l0.104 0.083c0.069 0.055 0.139 0.11 0.209 0.163l0.112 0.085c0.077 0.057 0.155 0.113 0.234 0.168l0.109 0.077c0.075 0.051 0.151 0.101 0.228 0.15l0.098 0.066c0.117 0.074 0.236 0.147 0.356 0.218l0.098 0.055c0.088 0.051 0.177 0.101 0.267 0.15 0.049 0.026 0.099 0.051 0.148 0.076 0.064 0.033 0.127 0.067 0.191 0.099l0.122 0.059c0.1 0.048 0.201 0.095 0.303 0.14l0.064 0.029c0.117 0.051 0.235 0.1 0.354 0.147l0.086 0.034c0.11 0.042 0.222 0.084 0.334 0.124l0.042 0.015c0.123 0.043 0.247 0.083 0.372 0.122l0.090 0.027c0.127 0.038 0.253 0.084 0.384 0.108 8.334 1.52 10.755-5.008 10.755-5.008-2.033 2.649-5.642 3.348-9.062 2.57zM7.198 9.953c0.187 0.268 0.394 0.586 0.641 0.801 0.090 0.099 0.184 0.195 0.28 0.29l0.074 0.073c0.093 0.090 0.188 0.179 0.286 0.265l0.012 0.010 0.003 0.003c0.108 0.095 0.22 0.186 0.334 0.276l0.076 0.059c0.114 0.087 0.23 0.173 0.349 0.255l0.010 0.008c0.053 0.036 0.106 0.070 0.159 0.105l0.075 0.050c0.085 0.055 0.171 0.108 0.259 0.159l0.037 0.021c0.075 0.043 0.152 0.086 0.229 0.128l0.081 0.042c0.053 0.028 0.106 0.056 0.16 0.083l0.024 0.011c0.11 0.054 0.22 0.106 0.334 0.155l0.074 0.030c0.090 0.038 0.182 0.076 0.273 0.111l0.117 0.043c0.083 0.031 0.167 0.059 0.251 0.087l0.114 0.036c0.12 0.037 0.238 0.084 0.363 0.105 6.435 1.066 7.92-3.888 7.92-3.888-1.339 1.929-3.933 2.849-6.7 2.13-0.123-0.032-0.244-0.067-0.365-0.105l-0.109-0.035c-0.086-0.028-0.171-0.057-0.255-0.088l-0.115-0.043c-0.092-0.036-0.184-0.072-0.274-0.111l-0.074-0.031c-0.114-0.049-0.225-0.102-0.336-0.156-0.057-0.028-0.113-0.057-0.168-0.086l-0.097-0.050c-0.072-0.039-0.143-0.079-0.213-0.12l-0.051-0.029c-0.087-0.051-0.173-0.103-0.258-0.157l-0.078-0.052c-0.056-0.036-0.112-0.073-0.167-0.11-0.119-0.082-0.234-0.168-0.348-0.254l-0.078-0.062c-1.211-0.956-2.171-2.263-2.628-3.745-0.478-1.537-0.375-3.262 0.454-4.662l-1.018 1.438c-1.246 1.793-1.179 4.194-0.206 6.091 0.163 0.318 0.346 0.627 0.551 0.921zM13.981 7.734c0.053 0.020 0.106 0.037 0.16 0.055l0.070 0.022c0.076 0.024 0.151 0.051 0.229 0.066 3.553 0.687 4.517-1.823 4.773-2.193-0.844 1.215-2.263 1.507-4.004 1.085-0.137-0.033-0.289-0.083-0.421-0.13-0.17-0.061-0.338-0.13-0.5-0.208-0.309-0.149-0.604-0.329-0.877-0.535-1.558-1.182-2.525-3.437-1.509-5.273l-0.55 0.758c-0.735 1.081-0.807 2.424-0.297 3.618 0.538 1.268 1.639 2.262 2.925 2.733z"></path>
</svg>
<svg id="icon-javascript-plain" width="20" height="20" viewBox="0 0 20 20" x="80" y="0">
<path fill="#6d6d6d" d="M0.313 0.156v19.531h19.531v-19.531h-19.531zM10.644 16.799c-0.288 0.586-0.839 0.971-1.476 1.156-0.98 0.225-1.917 0.097-2.614-0.322-0.467-0.286-0.831-0.727-1.078-1.235l1.487-0.911c0.013 0.005 0.052 0.076 0.104 0.167 0.19 0.318 0.353 0.543 0.675 0.701 0.316 0.108 1.010 0.177 1.277-0.379 0.164-0.283 0.112-1.192 0.112-2.198-0-1.58 0.007-3.154 0.007-4.717h1.83c0 1.719 0.009 3.347 0 5.024 0.004 1.028 0.093 1.945-0.323 2.713zM18.233 16.282c-0.636 2.175-4.182 2.246-5.598 0.809-0.299-0.338-0.487-0.515-0.666-0.905 0.753-0.433 0.753-0.433 1.486-0.857 0.398 0.612 0.766 0.948 1.428 1.086 0.898 0.11 1.802-0.199 1.599-1.153-0.208-0.779-1.839-0.969-2.949-1.802-1.127-0.757-1.391-2.595-0.465-3.646 0.309-0.389 0.835-0.679 1.387-0.818l0.576-0.075c1.106-0.022 1.798 0.27 2.306 0.837 0.141 0.143 0.257 0.297 0.472 0.632-0.589 0.376-0.588 0.372-1.432 0.919-0.18-0.388-0.48-0.632-0.796-0.738-0.491-0.149-1.11 0.013-1.238 0.532-0.045 0.16-0.035 0.309 0.035 0.573 0.199 0.454 0.866 0.651 1.465 0.926 1.724 0.699 2.306 1.449 2.449 2.341 0.138 0.768-0.033 1.266-0.059 1.341z"></path>
</svg>
<svg id="icon-github-original" width="20" height="20" viewBox="0 0 20 20" x="100" y="0">
<path fill="#6d6d6d" d="M10 0.797c-5.21 0-9.436 4.224-9.436 9.436 0 4.169 2.704 7.706 6.453 8.954 0.471 0.087 0.645-0.205 0.645-0.454 0-0.225-0.009-0.968-0.013-1.757-2.625 0.571-3.179-1.113-3.179-1.113-0.429-1.091-1.048-1.381-1.048-1.381-0.856-0.586 0.065-0.573 0.065-0.573 0.947 0.066 1.446 0.972 1.446 0.972 0.842 1.442 2.207 1.025 2.746 0.784 0.085-0.61 0.329-1.026 0.599-1.262-2.096-0.238-4.299-1.047-4.299-4.663 0-1.030 0.369-1.872 0.972-2.533-0.098-0.238-0.421-1.197 0.091-2.497 0 0 0.792-0.254 2.595 0.967 0.753-0.209 1.56-0.314 2.362-0.318 0.802 0.004 1.609 0.108 2.364 0.318 1.801-1.221 2.592-0.967 2.592-0.967 0.514 1.3 0.191 2.259 0.093 2.497 0.605 0.661 0.971 1.503 0.971 2.533 0 3.624-2.207 4.422-4.308 4.656 0.339 0.293 0.64 0.867 0.64 1.747 0 1.262-0.011 2.279-0.011 2.589 0 0.251 0.17 0.545 0.648 0.453 3.747-1.249 6.447-4.785 6.447-8.952-0-5.211-4.225-9.435-9.436-9.435z"></path>
<path fill="#6d6d6d" d="M4.138 14.345c-0.021 0.047-0.095 0.061-0.162 0.029-0.069-0.031-0.107-0.095-0.085-0.142 0.020-0.048 0.094-0.062 0.163-0.029 0.069 0.031 0.108 0.095 0.084 0.142zM4.52 14.771c-0.045 0.042-0.133 0.022-0.192-0.044-0.062-0.066-0.073-0.154-0.028-0.196s0.132-0.022 0.194 0.044c0.062 0.067 0.074 0.154 0.027 0.196zM4.893 15.314c-0.058 0.040-0.152 0.003-0.211-0.081s-0.058-0.185 0.002-0.225c0.058-0.040 0.152-0.004 0.211 0.079 0.058 0.085 0.058 0.186-0.002 0.227zM5.402 15.84c-0.052 0.057-0.162 0.042-0.242-0.036-0.082-0.076-0.105-0.184-0.054-0.241s0.163-0.041 0.244 0.036c0.082 0.076 0.107 0.184 0.052 0.241zM6.105 16.144c-0.023 0.074-0.129 0.107-0.236 0.076s-0.177-0.119-0.155-0.193c0.022-0.075 0.129-0.109 0.236-0.076 0.107 0.032 0.177 0.118 0.154 0.193zM6.877 16.201c0.003 0.078-0.088 0.142-0.2 0.144-0.113 0.003-0.204-0.060-0.205-0.137 0-0.079 0.089-0.142 0.202-0.144s0.204 0.060 0.204 0.137zM7.596 16.079c0.013 0.076-0.065 0.154-0.176 0.175-0.109 0.020-0.211-0.027-0.225-0.102-0.013-0.078 0.066-0.156 0.175-0.176 0.112-0.019 0.212 0.027 0.226 0.104z"></path>
</svg>
<svg id="icon-mobile" width="20" height="20" viewBox="0 0 20 20" x="120" y="0">
<path fill="#6d6d6d" d="M14.375 0h-8.75c-1.031 0-1.875 0.844-1.875 1.875v16.25c0 1.031 0.844 1.875 1.875 1.875h8.75c1.031 0 1.875-0.844 1.875-1.875v-16.25c0-1.031-0.844-1.875-1.875-1.875zM7.5 0.938h5v0.625h-5v-0.625zM10 18.75c-0.69 0-1.25-0.56-1.25-1.25s0.56-1.25 1.25-1.25 1.25 0.56 1.25 1.25-0.56 1.25-1.25 1.25zM15 15h-10v-12.5h10v12.5z"></path>
</svg>
<svg id="icon-stats-dots" width="20" height="20" viewBox="0 0 20 20" x="140" y="0">
<path fill="#6d6d6d" d="M2.5 17.5h17.5v2.5h-20v-20h2.5zM5.625 16.25c-1.036 0-1.875-0.839-1.875-1.875s0.839-1.875 1.875-1.875c0.055 0 0.11 0.003 0.164 0.008l2.015-3.359c-0.192-0.294-0.304-0.646-0.304-1.023 0-1.036 0.839-1.875 1.875-1.875s1.875 0.839 1.875 1.875c0 0.378-0.112 0.729-0.304 1.023l2.015 3.359c0.054-0.005 0.109-0.008 0.164-0.008 0.042 0 0.083 0.002 0.124 0.004l3.327-5.823c-0.206-0.301-0.326-0.665-0.326-1.057 0-1.036 0.839-1.875 1.875-1.875s1.875 0.839 1.875 1.875c0 1.036-0.839 1.875-1.875 1.875-0.042 0-0.083-0.002-0.124-0.005l-3.327 5.823c0.206 0.301 0.326 0.665 0.326 1.057 0 1.036-0.839 1.875-1.875 1.875s-1.875-0.839-1.875-1.875c0-0.378 0.112-0.729 0.304-1.023l-2.015-3.359c-0.054 0.005-0.109 0.008-0.164 0.008s-0.11-0.003-0.164-0.008l-2.015 3.359c0.192 0.294 0.304 0.646 0.304 1.023 0 1.036-0.839 1.875-1.875 1.875z"></path>
</svg>
<svg id="icon-npm" width="20" height="20" viewBox="0 0 20 20" x="160" y="0">
<path fill="#6d6d6d" d="M0 0v20h20v-20h-20zM16.25 16.25h-2.5v-10h-3.75v10h-6.25v-12.5h12.5v12.5z"></path>
</svg>
<svg id="icon-html-five" width="20" height="20" viewBox="0 0 20 20" x="180" y="0">
<path fill="#6d6d6d" d="M1.182 0l1.604 18.001 7.202 1.999 7.221-2.002 1.607-17.998h-17.635zM15.325 5.887h-8.448l0.201 2.261h8.046l-0.606 6.778-4.528 1.255-4.523-1.255-0.309-3.467h2.217l0.157 1.762 2.458 0.662 0.005-0.002 2.46-0.664 0.255-2.862h-7.651l-0.596-6.676h11.059l-0.197 2.207z"></path>
</svg>
<svg id="icon-css3" width="20" height="20" viewBox="0 0 20 20" x="200" y="0">
<path fill="#6d6d6d" d="M2.976 0.948l-0.671 3.358h13.667l-0.427 2.169h-13.676l-0.662 3.357h13.666l-0.762 3.829-5.508 1.825-4.773-1.825 0.327-1.661h-3.357l-0.799 4.030 7.895 3.022 9.102-3.022 3.003-15.083z"></path>
</svg>
<svg id="icon-svg" width="20" height="20" viewBox="0 0 20 20" x="220" y="0">
<path fill="#6d6d6d" d="M18.125 8.125c-0.555 0-1.054 0.242-1.397 0.625h-3.71l2.623-2.623c0.514 0.028 1.037-0.153 1.43-0.546 0.732-0.732 0.732-1.919 0-2.652s-1.919-0.732-2.652 0c-0.393 0.393-0.574 0.916-0.546 1.43l-2.623 2.623v-3.71c0.383-0.343 0.625-0.842 0.625-1.397 0-1.036-0.839-1.875-1.875-1.875s-1.875 0.839-1.875 1.875c0 0.555 0.242 1.054 0.625 1.397v3.71l-2.623-2.623c0.028-0.514-0.153-1.037-0.546-1.43-0.732-0.732-1.919-0.732-2.652 0s-0.732 1.919 0 2.652c0.393 0.393 0.916 0.574 1.43 0.546l2.623 2.623h-3.71c-0.343-0.383-0.842-0.625-1.397-0.625-1.036 0-1.875 0.839-1.875 1.875s0.839 1.875 1.875 1.875c0.555 0 1.054-0.242 1.397-0.625h3.71l-2.623 2.623c-0.514-0.028-1.037 0.153-1.43 0.546-0.732 0.732-0.732 1.919 0 2.652s1.919 0.732 2.652 0c0.393-0.393 0.574-0.916 0.546-1.43l2.623-2.623v3.71c-0.383 0.343-0.625 0.842-0.625 1.397 0 1.036 0.839 1.875 1.875 1.875s1.875-0.839 1.875-1.875c0-0.555-0.242-1.054-0.625-1.397v-3.71l2.623 2.623c-0.028 0.514 0.153 1.037 0.546 1.43 0.732 0.732 1.919 0.732 2.652 0s0.732-1.919 0-2.652c-0.393-0.393-0.916-0.574-1.43-0.546l-2.623-2.623h3.71c0.343 0.383 0.842 0.625 1.397 0.625 1.036 0 1.875-0.839 1.875-1.875s-0.839-1.875-1.875-1.875z"></path>
</svg>
</svg>
